<svg width="18" height="18" viewBox="0 0 18 18" fill="black" xmlns="http://www.w3.org/2000/svg">
<path d="M0.666992 9.0013C0.666992 13.6013 4.40033 17.3346 9.00033 17.3346C13.6003 17.3346 17.3337 13.6013 17.3337 9.0013C17.3337 4.4013 13.6003 0.667969 9.00033 0.667969C4.40033 0.667969 0.666992 4.4013 0.666992 9.0013ZM15.667 9.0013C15.667 12.6846 12.6837 15.668 9.00033 15.668C5.31699 15.668 2.33366 12.6846 2.33366 9.0013C2.33366 5.31797 5.31699 2.33464 9.00033 2.33464C12.6837 2.33464 15.667 5.31797 15.667 9.0013ZM5.66699 9.0013L9.00033 5.66797L10.1753 6.84297L8.85866 8.16797H12.3337V9.83464H8.85866L10.1837 11.1596L9.00033 12.3346L5.66699 9.0013Z" fill="#508DE8"/>
</svg>
