<svg xmlns="http://www.w3.org/2000/svg" fill="none" viewBox="41 0.11 375 122.89">
<path opacity="0.1" d="M252 75C265.255 75 276 85.7452 276 99C276 112.255 265.255 123 252 123C238.745 123 228 112.255 228 99C228 85.7452 238.745 75 252 75ZM252 107.453C256.669 107.453 260.453 103.669 260.453 99C260.453 94.3313 256.669 90.5466 252 90.5466C247.331 90.5466 243.547 94.3313 243.547 99C243.547 103.669 247.331 107.453 252 107.453Z" fill="url(#paint0_linear_923_10336)"/>
<path opacity="0.1" d="M119.5 55C128.613 55 136 62.3873 136 71.5C136 80.6127 128.613 88 119.5 88C110.387 88 103 80.6127 103 71.5C103 62.3873 110.387 55 119.5 55ZM119.5 77.3117C122.71 77.3117 125.312 74.7097 125.312 71.5C125.312 68.2903 122.71 65.6883 119.5 65.6883C116.29 65.6883 113.688 68.2903 113.688 71.5C113.688 74.7097 116.29 77.3117 119.5 77.3117Z" fill="#FF9100"/>
<path opacity="0.1" d="M41 101.89C41 104.16 42.8449 106.021 45.1036 105.794C54.4703 104.852 63.2757 100.707 69.9914 93.9914C77.6804 86.3024 82 75.8739 82 65C82 54.1261 77.6804 43.6976 69.9914 36.0086C63.2758 29.293 54.4703 25.1477 45.1036 24.2057C42.8449 23.9786 41 25.8402 41 28.1103V28.1103C41 30.3803 42.8475 32.194 45.0997 32.4778C52.2816 33.383 59.0056 36.6485 64.1786 41.8214C70.3259 47.9688 73.7794 56.3064 73.7794 65C73.7794 73.6936 70.3259 82.0312 64.1786 88.1786C59.0056 93.3516 52.2816 96.617 45.0997 97.5222C42.8474 97.806 41 99.6197 41 101.89V101.89Z" fill="url(#paint1_linear_923_10336)"/>
<path opacity="0.1" d="M416 45.594C416 46.9228 414.92 48.0125 413.598 47.8796C408.115 47.3282 402.961 44.9017 399.029 40.9706C394.529 36.4697 392 30.3652 392 24C392 17.6348 394.529 11.5303 399.029 7.02944C402.961 3.09834 408.115 0.671797 413.598 0.120435C414.92 -0.0125183 416 1.07721 416 2.40602V2.40602C416 3.73482 414.919 4.79646 413.6 4.96262C409.396 5.49249 405.46 7.40397 402.432 10.4321C398.834 14.0305 396.812 18.911 396.812 24C396.812 29.089 398.834 33.9695 402.432 37.5679C405.46 40.596 409.396 42.5075 413.6 43.0374C414.919 43.2035 416 44.2652 416 45.594V45.594Z" fill="url(#paint2_linear_923_10336)"/>
<defs>
<linearGradient id="paint0_linear_923_10336" x1="228" y1="99" x2="276" y2="99" gradientUnits="userSpaceOnUse">
<stop stop-color="#FF7EAC"/>
<stop offset="1" stop-color="#EA4335"/>
</linearGradient>
<linearGradient id="paint1_linear_923_10336" x1="82" y1="65" x2="-1.79217e-06" y2="65" gradientUnits="userSpaceOnUse">
<stop stop-color="#C79CFF"/>
<stop offset="1" stop-color="#8A32FF"/>
</linearGradient>
<linearGradient id="paint2_linear_923_10336" x1="392" y1="24" x2="440" y2="24" gradientUnits="userSpaceOnUse">
<stop stop-color="#C79CFF"/>
<stop offset="1" stop-color="#8A32FF"/>
</linearGradient>
</defs>
</svg>