<svg width="56" height="56" viewBox="0 0 56 56" fill="none" xmlns="http://www.w3.org/2000/svg">
<g filter="url(#filter0_d_4162_22927)">
<circle cx="28" cy="24" r="23.5" fill="white" stroke="url(#paint0_linear_4162_22927)"/>
<path d="M23.8205 31.3278C22.3038 31.1924 21.4692 30.6471 21.0241 29.5658C20.8635 29.1762 20.7513 28.7212 20.6795 28.1842C20.6795 28.0921 20.5897 28 20.5 28C20.4103 28 20.3205 28.0921 20.3205 28.1842C20.2487 28.7212 20.1365 29.1762 19.9759 29.5658C19.5317 30.6471 18.6971 31.1924 17.1795 31.3278C17.0897 31.3278 17 31.4199 17 31.512C17 31.6041 17.0897 31.6962 17.1795 31.6962C19.0641 32.0646 20.0513 32.7895 20.3205 34.8158C20.3205 34.9079 20.4103 35 20.5 35C20.5897 35 20.6795 34.9079 20.6795 34.8158C20.9487 32.7895 21.9359 32.0646 23.8205 31.6962C23.9103 31.6962 24 31.6041 24 31.512C24 31.4199 23.9103 31.3278 23.8205 31.3278Z" fill="url(#paint1_linear_4162_22927)"/>
<path d="M37.3195 23.3333C32.2521 22.2667 30.0655 19.6933 29.052 14.4947C29.0179 14.354 28.9405 14.2292 28.8318 14.1397C28.7232 14.0502 28.5895 14.0011 28.4515 14C28.3125 14.0012 28.1779 14.0511 28.0689 14.1419C27.9599 14.2327 27.8828 14.3592 27.8498 14.5013C27.8384 14.5093 27.8587 14.4813 27.8498 14.5013C26.8363 19.8347 24.5243 22.2667 19.5836 23.3333C19.4156 23.3333 19.2545 23.4036 19.1357 23.5286C19.0169 23.6536 18.9502 23.8232 18.9502 24C18.9502 24.1768 19.0169 24.3464 19.1357 24.4714C19.2545 24.5964 19.4156 24.6667 19.5836 24.6667C24.651 25.7333 26.8262 28.2493 27.8397 33.4493C27.8636 33.6023 27.9381 33.7415 28.05 33.8423C28.162 33.943 28.3042 33.9989 28.4515 34C28.5929 33.9986 28.7296 33.9469 28.8394 33.8532C28.9491 33.7594 29.0254 33.6293 29.0558 33.484C29.0495 33.4973 29.0634 33.4733 29.0558 33.484C30.0693 28.1507 32.3788 25.7333 37.3195 24.6667C37.4874 24.6667 37.6486 24.5964 37.7674 24.4714C37.8861 24.3464 37.9529 24.1768 37.9529 24C37.9529 23.8232 37.8861 23.6536 37.7674 23.5286C37.6486 23.4036 37.4874 23.3333 37.3195 23.3333Z" fill="url(#paint2_linear_4162_22927)"/>
<path d="M38.2988 17.0006C38.2988 16.8969 38.2234 16.8277 38.1209 16.808L38.0517 16.7919C36.6085 16.4153 35.7337 15.5275 35.4903 14.1889C35.4903 14.1388 35.4704 14.0908 35.4349 14.0553C35.3995 14.0199 35.3514 14 35.3013 14V14.0049C35.1975 14.0049 35.1283 14.0815 35.1085 14.1828L35.0925 14.2519C34.7156 15.6942 33.8272 16.5684 32.4879 16.8117C32.4377 16.8117 32.3897 16.8316 32.3542 16.867C32.3187 16.9025 32.2988 16.9505 32.2988 17.0006H32.3038C32.3038 17.1043 32.3804 17.1735 32.4829 17.1932L32.5509 17.2093C33.994 17.5859 34.8688 18.4738 35.1122 19.8123C35.1122 19.916 35.1975 20.0012 35.3013 20.0012V19.9963C35.4051 19.9963 35.4743 19.9197 35.494 19.8172L35.5113 19.7493C35.8869 18.3071 36.7753 17.4328 38.1147 17.1895C38.1393 17.1895 38.1637 17.1846 38.1865 17.1751C38.2092 17.1656 38.2298 17.1516 38.2471 17.134C38.2643 17.1164 38.2779 17.0955 38.287 17.0726C38.2961 17.0497 38.2993 17.0252 38.2988 17.0006Z" fill="url(#paint3_linear_4162_22927)"/>
</g>
<defs>
<filter id="filter0_d_4162_22927" x="0" y="0" width="56" height="56" filterUnits="userSpaceOnUse" color-interpolation-filters="sRGB">
<feFlood flood-opacity="0" result="BackgroundImageFix"/>
<feColorMatrix in="SourceAlpha" type="matrix" values="0 0 0 0 0 0 0 0 0 0 0 0 0 0 0 0 0 0 127 0" result="hardAlpha"/>
<feOffset dy="4"/>
<feGaussianBlur stdDeviation="2"/>
<feComposite in2="hardAlpha" operator="out"/>
<feColorMatrix type="matrix" values="0 0 0 0 0.560784 0 0 0 0 0.768627 0 0 0 0 0.976471 0 0 0 0.2 0"/>
<feBlend mode="normal" in2="BackgroundImageFix" result="effect1_dropShadow_4162_22927"/>
<feBlend mode="normal" in="SourceGraphic" in2="effect1_dropShadow_4162_22927" result="shape"/>
</filter>
<linearGradient id="paint0_linear_4162_22927" x1="59.1313" y1="-7.36361" x2="2.44329" y2="-4.55219" gradientUnits="userSpaceOnUse">
<stop stop-color="#67EAFF"/>
<stop offset="1" stop-color="#347AF6"/>
</linearGradient>
<linearGradient id="paint1_linear_4162_22927" x1="20.5" y1="28" x2="20.5" y2="35" gradientUnits="userSpaceOnUse">
<stop stop-color="#67EAFF"/>
<stop offset="1" stop-color="#347AF6"/>
</linearGradient>
<linearGradient id="paint2_linear_4162_22927" x1="28.4515" y1="14" x2="28.4515" y2="34" gradientUnits="userSpaceOnUse">
<stop stop-color="#67EAFF"/>
<stop offset="1" stop-color="#347AF6"/>
</linearGradient>
<linearGradient id="paint3_linear_4162_22927" x1="35.2988" y1="14" x2="35.2988" y2="20.0012" gradientUnits="userSpaceOnUse">
<stop stop-color="#67EAFF"/>
<stop offset="1" stop-color="#347AF6"/>
</linearGradient>
</defs>
</svg>
