<svg width="36" height="36" viewBox="0 0 36 36" fill="none" xmlns="http://www.w3.org/2000/svg">
<path opacity="0.2" d="M18 36C27.9411 36 36 27.9411 36 18C36 8.05888 27.9411 0 18 0C8.05887 0 0 8.05888 0 18C0 27.9411 8.05887 36 18 36Z" fill="#53BEFB"/>
<path d="M25.6673 9.35938H11.1536C10.6724 9.36064 10.2114 9.54311 9.87118 9.86689C9.53098 10.1907 9.33926 10.6295 9.33793 11.0874L9.3291 26.6394L12.9597 23.184H25.6673C26.1484 23.1827 26.6095 23.0002 26.9497 22.6765C27.2899 22.3527 27.4816 21.9139 27.4829 21.456V11.0874C27.4816 10.6295 27.2899 10.1907 26.9497 9.86689C26.6095 9.54311 26.1484 9.36064 25.6673 9.35938ZM25.6673 21.4536H12.2064L11.1447 22.464V11.0874H25.6673V21.4536ZM22.0354 19.2336C22.0353 18.8934 21.9305 18.5607 21.7339 18.2766C21.5372 17.9925 21.2574 17.7695 20.929 17.6352C20.1331 17.3047 19.2741 17.1342 18.4057 17.1342C17.5373 17.1342 16.6783 17.3047 15.8824 17.6352C15.5538 17.7693 15.2737 17.9922 15.0768 18.2763C14.8799 18.5604 14.7749 18.8932 14.7747 19.2336V19.7262H22.0367L22.0354 19.2336Z" fill="#53BEFB"/>
<path d="M18.5971 16.1995C19.8157 16.1995 20.8036 15.2593 20.8036 14.0995C20.8036 12.9397 19.8157 11.9995 18.5971 11.9995C17.3785 11.9995 16.3906 12.9397 16.3906 14.0995C16.3906 15.2593 17.3785 16.1995 18.5971 16.1995Z" fill="#53BEFB"/>
</svg>
