<svg width="24" height="24" viewBox="0 0 24 24" fill="none" xmlns="http://www.w3.org/2000/svg">

<path d="M10.1035 15.8384C9.25456 15.7626 8.78737 15.4573 8.5382 14.8521C8.44828 14.634 8.38549 14.3793 8.3453 14.0787C8.3453 14.0271 8.29506 13.9756 8.24483 13.9756C8.19459 13.9756 8.14436 14.0271 8.14436 14.0787C8.10417 14.3793 8.04137 14.634 7.95145 14.8521C7.70279 15.4573 7.2356 15.7626 6.38612 15.8384C6.33588 15.8384 6.28564 15.8899 6.28564 15.9415C6.28564 15.993 6.33588 16.0446 6.38612 16.0446C7.44106 16.2508 7.99365 16.6566 8.14436 17.7908C8.14436 17.8424 8.19459 17.894 8.24483 17.894C8.29506 17.894 8.3453 17.8424 8.3453 17.7908C8.49601 16.6566 9.0486 16.2508 10.1035 16.0446C10.1538 16.0446 10.204 15.993 10.204 15.9415C10.204 15.8899 10.1538 15.8384 10.1035 15.8384Z" fill="url(#paint0_linear_3971_46552)"/>
<path d="M17.3333 11.6195C14.2856 11.0099 12.9706 9.53947 12.3611 6.5688C12.3405 6.48842 12.294 6.41709 12.2286 6.36595C12.1633 6.31482 12.0829 6.28675 11.9999 6.28613C11.9163 6.2868 11.8353 6.31533 11.7698 6.36722C11.7042 6.41912 11.6579 6.49139 11.638 6.57261C11.6312 6.57718 11.6434 6.56118 11.638 6.57261C11.0285 9.62023 9.63803 11.0099 6.6666 11.6195C6.56556 11.6195 6.46867 11.6596 6.39722 11.731C6.32578 11.8025 6.28564 11.8994 6.28564 12.0004C6.28564 12.1015 6.32578 12.1984 6.39722 12.2698C6.46867 12.3412 6.56556 12.3814 6.6666 12.3814C9.71422 12.9909 11.0224 14.4286 11.6319 17.4C11.6463 17.4875 11.6911 17.567 11.7585 17.6246C11.8258 17.6822 11.9113 17.7141 11.9999 17.7147C12.0849 17.7139 12.1672 17.6844 12.2332 17.6308C12.2992 17.5772 12.3451 17.5029 12.3634 17.4198C12.3595 17.4275 12.3679 17.4138 12.3634 17.4198C12.9729 14.3722 14.3618 12.9909 17.3333 12.3814C17.4343 12.3814 17.5312 12.3412 17.6026 12.2698C17.6741 12.1984 17.7142 12.1015 17.7142 12.0004C17.7142 11.8994 17.6741 11.8025 17.6026 11.731C17.5312 11.6596 17.4343 11.6195 17.3333 11.6195Z" fill="url(#paint1_linear_3971_46552)"/>
<path d="M17.6319 8.24532C17.6319 8.17759 17.5827 8.13244 17.5157 8.11954L17.4705 8.10906C16.5283 7.86316 15.9571 7.28346 15.7982 6.40949C15.7982 6.37677 15.7852 6.3454 15.762 6.32226C15.7389 6.29913 15.7075 6.28613 15.6747 6.28613V6.28936C15.607 6.28936 15.5618 6.33935 15.5489 6.40546L15.5384 6.45061C15.2923 7.39231 14.7123 7.96313 13.8378 8.12196C13.8051 8.12196 13.7737 8.13496 13.7505 8.15809C13.7274 8.18122 13.7144 8.2126 13.7144 8.24532H13.7176C13.7176 8.31304 13.7676 8.35819 13.8346 8.37109L13.8789 8.38157C14.8212 8.62748 15.3924 9.20717 15.5513 10.0811C15.5513 10.1489 15.607 10.2045 15.6747 10.2045V10.2013C15.7425 10.2013 15.7877 10.1513 15.8006 10.0844L15.8119 10.04C16.0571 9.09833 16.6372 8.5275 17.5117 8.36867C17.5278 8.36868 17.5437 8.36547 17.5586 8.35924C17.5734 8.35301 17.5869 8.34389 17.5981 8.3324C17.6094 8.32091 17.6183 8.30729 17.6242 8.29234C17.6301 8.27739 17.6322 8.2614 17.6319 8.24532Z" fill="url(#paint2_linear_3971_46552)"/>

<defs>
<linearGradient id="paint0_linear_3971_46552" x1="8.24483" y1="13.9756" x2="8.24483" y2="17.894" gradientUnits="userSpaceOnUse">
<stop stop-color="#67EAFF"/>
<stop offset="1" stop-color="#347AF6"/>
</linearGradient>
<linearGradient id="paint1_linear_3971_46552" x1="11.9999" y1="6.28613" x2="11.9999" y2="17.7147" gradientUnits="userSpaceOnUse">
<stop stop-color="#67EAFF"/>
<stop offset="1" stop-color="#347AF6"/>
</linearGradient>
<linearGradient id="paint2_linear_3971_46552" x1="15.6735" y1="6.28613" x2="15.6735" y2="10.2045" gradientUnits="userSpaceOnUse">
<stop stop-color="#67EAFF"/>
<stop offset="1" stop-color="#347AF6"/>
</linearGradient>
</defs>
</svg>
