<svg width="36" height="36" viewBox="0 0 36 36" fill="none" xmlns="http://www.w3.org/2000/svg">
<path d="M18 36C27.9411 36 36 27.9411 36 18C36 8.05888 27.9411 0 18 0C8.05887 0 0 8.05888 0 18C0 27.9411 8.05887 36 18 36Z" fill="#E1EDFF"/>
<path d="M25.6678 9.35938H11.1541C10.6729 9.36064 10.2119 9.54311 9.87167 9.86689C9.53146 10.1907 9.33975 10.6295 9.33842 11.0874L9.32959 26.6394L12.9602 23.184H25.6678C26.1489 23.1827 26.6099 23.0002 26.9502 22.6765C27.2904 22.3527 27.4821 21.9139 27.4834 21.456V11.0874C27.4821 10.6295 27.2904 10.1907 26.9502 9.86689C26.6099 9.54311 26.1489 9.36064 25.6678 9.35938V9.35938ZM25.6678 21.4536H12.2069L11.1452 22.464V11.0874H25.6678V21.4536ZM22.0359 19.2336C22.0358 18.8934 21.931 18.5607 21.7344 18.2766C21.5377 17.9925 21.2579 17.7695 20.9295 17.6352C20.1336 17.3047 19.2745 17.1342 18.4062 17.1342C17.5378 17.1342 16.6788 17.3047 15.8829 17.6352C15.5543 17.7693 15.2742 17.9922 15.0773 18.2763C14.8804 18.5604 14.7754 18.8932 14.7752 19.2336V19.7262H22.0371L22.0359 19.2336Z" fill="#508DE8"/>
<path d="M18.5971 16.1995C19.8157 16.1995 20.8036 15.2593 20.8036 14.0995C20.8036 12.9397 19.8157 11.9995 18.5971 11.9995C17.3785 11.9995 16.3906 12.9397 16.3906 14.0995C16.3906 15.2593 17.3785 16.1995 18.5971 16.1995Z" fill="#508DE8"/>
</svg>
