<svg width="36" height="36" viewBox="0 0 36 36" fill="none" xmlns="http://www.w3.org/2000/svg">
<path d="M18 36C27.9411 36 36 27.9411 36 18C36 8.05888 27.9411 0 18 0C8.05887 0 0 8.05888 0 18C0 27.9411 8.05887 36 18 36Z" fill="#E1EDFF"/>
<g clip-path="url(#clip0_4300_20771)">
<path d="M18.6996 22.3333V21H10.0996V22.3333H18.6996ZM26.0996 18.6667V17.3333H10.0996V18.6667H26.0996ZM26.0996 15V13.6667H10.0996V15H26.0996ZM26.0996 11.3333V10H10.0996V11.3333H26.0996Z" fill="#508DE8"/>
<path d="M25.2594 21.0266L24.8683 20.1777L24.4905 21.0266L23.6416 21.4044L24.4905 21.7955L24.8683 22.6355L25.2594 21.7955L26.0994 21.4044L25.2594 21.0266Z" fill="#508DE8"/>
<path d="M22.0867 21.084L21.3222 22.7729L19.6289 23.5418L21.3222 24.3107L22.0867 25.9995L22.8556 24.3107L24.5489 23.5418L22.8556 22.7729L22.0867 21.084Z" fill="#508DE8"/>
</g>
<defs>
<clipPath id="clip0_4300_20771">
<rect width="16" height="16" fill="white" transform="translate(10.0996 10)"/>
</clipPath>
</defs>
</svg>
