<svg width="36" height="36" viewBox="0 0 36 36" fill="none" xmlns="http://www.w3.org/2000/svg">
<path d="M18 36C27.9411 36 36 27.9411 36 18C36 8.05888 27.9411 0 18 0C8.05887 0 0 8.05888 0 18C0 27.9411 8.05887 36 18 36Z" fill="#E1EDFF"/>
<path d="M21.375 23.79H12.375V14.625H17.625V13.125H12.375C11.55 13.125 10.875 13.8 10.875 14.625V23.625C10.875 24.45 11.55 25.125 12.375 25.125H21.375C22.2 25.125 22.875 24.45 22.875 23.625V18.375H21.375V23.79Z" fill="#508DE8"/>
<path d="M22.875 10.875H21.375V13.125H19.125C19.1325 13.1325 19.125 14.625 19.125 14.625H21.375V16.8675C21.3825 16.875 22.875 16.8675 22.875 16.8675V14.625H25.125V13.125H22.875V10.875Z" fill="#508DE8"/>
<path d="M19.875 16.125H13.875V17.625H19.875V16.125Z" fill="#508DE8"/>
<path d="M13.875 18.375V19.875H19.875V18.375H13.875Z" fill="#508DE8"/>
<path d="M19.875 20.625H13.875V22.125H19.875V20.625Z" fill="#508DE8"/>
</svg>
