<svg width="20" height="20" viewBox="0 0 20 20" fill="none" xmlns="http://www.w3.org/2000/svg">
<path d="M10 20C15.5228 20 20 15.5228 20 10C20 4.47715 15.5228 0 10 0C4.47715 0 0 4.47715 0 10C0 15.5228 4.47715 20 10 20Z" fill="#FF9100"/>
<path d="M5.91667 12.3335L4.75 5.91683L7.95833 8.8335L10 5.3335L12.0417 8.8335L15.25 5.91683L14.0833 12.3335H5.91667ZM14.0833 14.0835C14.0833 14.4335 13.85 14.6668 13.5 14.6668H6.5C6.15 14.6668 5.91667 14.4335 5.91667 14.0835V13.5002H14.0833V14.0835Z" fill="white"/>
</svg>
