<svg width="36" height="36" viewBox="0 0 36 36" fill="none" xmlns="http://www.w3.org/2000/svg">
<path d="M18 36C27.9411 36 36 27.9411 36 18C36 8.05888 27.9411 0 18 0C8.05887 0 0 8.05888 0 18C0 27.9411 8.05887 36 18 36Z" fill="#E1EDFF"/>
<path d="M16.3332 17.1667C18.1748 17.1667 19.6665 15.675 19.6665 13.8333C19.6665 11.9917 18.1748 10.5 16.3332 10.5C14.4915 10.5 12.9998 11.9917 12.9998 13.8333C12.9998 15.675 14.4915 17.1667 16.3332 17.1667ZM16.3332 12.1667C17.2498 12.1667 17.9998 12.9167 17.9998 13.8333C17.9998 14.75 17.2498 15.5 16.3332 15.5C15.4165 15.5 14.6665 14.75 14.6665 13.8333C14.6665 12.9167 15.4165 12.1667 16.3332 12.1667Z" fill="#508DE8"/>
<path d="M11.3332 22.1667C11.5165 21.5667 14.0915 20.5 16.3332 20.5C16.3332 19.9167 16.4415 19.3583 16.6248 18.8417C14.3498 18.7583 9.6665 19.8917 9.6665 22.1667V23.8333H17.6165C17.1832 23.35 16.8415 22.7917 16.6248 22.1667H11.3332Z" fill="#508DE8"/>
<path d="M24.1915 22.1833C24.4915 21.6917 24.6665 21.1167 24.6665 20.5C24.6665 18.6583 23.1748 17.1667 21.3332 17.1667C19.4915 17.1667 17.9998 18.6583 17.9998 20.5C17.9998 22.3417 19.4915 23.8333 21.3332 23.8333C21.9498 23.8333 22.5248 23.65 23.0165 23.3583C23.7915 24.1333 24.3665 24.7083 25.1582 25.5L26.3332 24.325C25.0832 23.075 25.6748 23.6583 24.1915 22.1833ZM21.3332 22.1667C20.4165 22.1667 19.6665 21.4167 19.6665 20.5C19.6665 19.5833 20.4165 18.8333 21.3332 18.8333C22.2498 18.8333 22.9998 19.5833 22.9998 20.5C22.9998 21.4167 22.2498 22.1667 21.3332 22.1667Z" fill="#508DE8"/>
</svg>
