<svg width="36" height="36" viewBox="0 0 36 36" fill="none" xmlns="http://www.w3.org/2000/svg">
<path d="M18 36C27.9411 36 36 27.9411 36 18C36 8.05888 27.9411 0 18 0C8.05887 0 0 8.05888 0 18C0 27.9411 8.05887 36 18 36Z" fill="#E1EDFF"/>
<g clip-path="url(#clip0_4300_20769)">
<path fill-rule="evenodd" clip-rule="evenodd" d="M9.75 11.1285C9.75 10.7629 9.89523 10.4123 10.1538 10.1538C10.4123 9.89524 10.7629 9.75 11.1285 9.75H24.87C25.0512 9.74971 25.2306 9.78515 25.3981 9.8543C25.5656 9.92345 25.7178 10.025 25.8459 10.153C25.9741 10.281 26.0758 10.4331 26.1451 10.6005C26.2145 10.7679 26.2501 10.9473 26.25 11.1285V24.87C26.2502 25.0512 26.2147 25.2307 26.1454 25.3982C26.0762 25.5656 25.9746 25.7178 25.8465 25.846C25.7184 25.9742 25.5663 26.0758 25.3989 26.1451C25.2314 26.2145 25.052 26.2501 24.8707 26.25H11.1285C10.9474 26.25 10.7681 26.2143 10.6008 26.145C10.4335 26.0757 10.2815 25.9741 10.1535 25.846C10.0255 25.7179 9.92395 25.5658 9.85472 25.3985C9.78548 25.2312 9.7499 25.0518 9.75 24.8708V11.1285ZM16.281 16.041H18.5153V17.163C18.8378 16.518 19.6627 15.9375 20.9025 15.9375C23.2792 15.9375 23.8425 17.2223 23.8425 19.5795V23.946H21.4373V20.1165C21.4373 18.774 21.1147 18.0165 20.2957 18.0165C19.1595 18.0165 18.687 18.8333 18.687 20.1165V23.946H16.281V16.041ZM12.156 23.8433H14.562V15.9375H12.156V23.8425V23.8433ZM14.9063 13.359C14.9108 13.565 14.8741 13.7698 14.7984 13.9615C14.7227 14.1531 14.6095 14.3277 14.4654 14.475C14.3213 14.6223 14.1493 14.7394 13.9593 14.8193C13.7694 14.8992 13.5654 14.9403 13.3594 14.9403C13.1533 14.9403 12.9493 14.8992 12.7594 14.8193C12.5695 14.7394 12.3974 14.6223 12.2533 14.475C12.1092 14.3277 11.996 14.1531 11.9203 13.9615C11.8446 13.7698 11.808 13.565 11.8125 13.359C11.8214 12.9546 11.9883 12.5698 12.2774 12.287C12.5665 12.0042 12.9549 11.8458 13.3594 11.8458C13.7638 11.8458 14.1522 12.0042 14.4413 12.287C14.7305 12.5698 14.8973 12.9546 14.9063 13.359V13.359Z" fill="#508DE8"/>
</g>
<defs>
<clipPath id="clip0_4300_20769">
<rect width="18" height="18" fill="white" transform="translate(9 9)"/>
</clipPath>
</defs>
</svg>
