<svg width="36" height="36" viewBox="0 0 36 36" fill="none" xmlns="http://www.w3.org/2000/svg">
<path d="M18 36C27.9411 36 36 27.9411 36 18C36 8.05888 27.9411 0 18 0C8.05887 0 0 8.05888 0 18C0 27.9411 8.05887 36 18 36Z" fill="#E1EDFF"/>
<path d="M11.25 16.125H9.75V24.375C9.75 25.2075 10.4175 25.875 11.25 25.875H24V24.375H11.25V16.125Z" fill="#508DE8"/>
<path d="M22.5 13.125V11.625C22.5 10.8 21.825 10.125 21 10.125H18C17.175 10.125 16.5 10.8 16.5 11.625V13.125H12.75V21.375C12.75 22.2 13.425 22.875 14.25 22.875H24.75C25.575 22.875 26.25 22.2 26.25 21.375V13.125H22.5ZM18 11.625H21V13.125H18V11.625ZM24.75 21.375H14.25V14.625H24.75V21.375Z" fill="#508DE8"/>
</svg>
