<svg width="12" height="16" viewBox="0 0 12 16" fill="none" xmlns="http://www.w3.org/2000/svg">
<path d="M11.5575 4.5575L7.935 0.935C7.6575 0.6575 7.275 0.5 6.8775 0.5H1.5C0.675 0.5 0.00750017 1.175 0.00750017 2L0 14C0 14.825 0.6675 15.5 1.4925 15.5H10.5C11.325 15.5 12 14.825 12 14V5.6225C12 5.225 11.8425 4.8425 11.5575 4.5575ZM8.1 10.25H6.75V12.5C6.75 12.9125 6.4125 13.25 6 13.25C5.5875 13.25 5.25 12.9125 5.25 12.5V10.25H3.9075C3.57 10.25 3.405 9.845 3.645 9.6125L5.745 7.52C5.895 7.3775 6.1275 7.3775 6.2775 7.52L8.37 9.6125C8.595 9.845 8.43 10.25 8.1 10.25ZM7.5 5.75C7.0875 5.75 6.75 5.4125 6.75 5V1.625L10.875 5.75H7.5Z" fill="#508DE8"/>
</svg>
