<svg width="36" height="36" viewBox="0 0 36 36" fill="none" xmlns="http://www.w3.org/2000/svg">
<path d="M18 36C27.9411 36 36 27.9411 36 18C36 8.05888 27.9411 0 18 0C8.05887 0 0 8.05888 0 18C0 27.9411 8.05887 36 18 36Z" fill="#E1EDFF"/>
<path d="M12 13.5H10.5V24C10.5 24.825 11.175 25.5 12 25.5H22.5V24H12V13.5ZM24 10.5H15C14.175 10.5 13.5 11.175 13.5 12V21C13.5 21.825 14.175 22.5 15 22.5H24C24.825 22.5 25.5 21.825 25.5 21V12C25.5 11.175 24.825 10.5 24 10.5ZM24 21H15V12H24V21ZM18.75 19.5H20.25V17.25H22.5V15.75H20.25V13.5H18.75V15.75H16.5V17.25H18.75V19.5Z" fill="#508DE8"/>
</svg>
