<svg width="36" height="36" viewBox="0 0 36 36" fill="none" xmlns="http://www.w3.org/2000/svg">
<path d="M18 36C27.9411 36 36 27.9411 36 18C36 8.05888 27.9411 0 18 0C8.05887 0 0 8.05888 0 18C0 27.9411 8.05887 36 18 36Z" fill="#E1EDFF"/>
<path d="M20.0174 10.6566L12.2474 17.6166C11.7674 18.0516 12.0374 18.8541 12.6824 18.9141L18.7499 19.4991L15.1124 24.5691C14.9474 24.8016 14.9699 25.1241 15.1724 25.3266C15.3974 25.5516 15.7499 25.5591 15.9824 25.3416L23.7524 18.3816C24.2324 17.9466 23.9624 17.1441 23.3174 17.0841L17.2499 16.4991L20.8874 11.4291C21.0524 11.1966 21.0299 10.8741 20.8274 10.6716C20.6024 10.4466 20.2499 10.4391 20.0174 10.6566Z" fill="#508DE8"/>
</svg>
