<svg width="20" height="20" viewBox="0 0 20 20" fill="none" xmlns="http://www.w3.org/2000/svg">
<path d="M14.5 17.72H2.5V5.5H9.5V3.5H2.5C1.4 3.5 0.5 4.4 0.5 5.5V17.5C0.5 18.6 1.4 19.5 2.5 19.5H14.5C15.6 19.5 16.5 18.6 16.5 17.5V10.5H14.5V17.72Z" fill="white"/>
<path d="M16.5 0.5H14.5V3.5H11.5C11.51 3.51 11.5 5.5 11.5 5.5H14.5V8.49C14.51 8.5 16.5 8.49 16.5 8.49V5.5H19.5V3.5H16.5V0.5Z" fill="white"/>
<path d="M12.5 7.5H4.5V9.5H12.5V7.5Z" fill="white"/>
<path d="M4.5 10.5V12.5H12.5V10.5H4.5Z" fill="white"/>
<path d="M12.5 13.5H4.5V15.5H12.5V13.5Z" fill="white"/>
</svg>
