<svg width="12" height="14" viewBox="0 0 12 14" fill="none" xmlns="http://www.w3.org/2000/svg">
<path d="M10.3333 0.335938H4.33325C3.59992 0.335938 2.99992 0.935938 2.99992 1.66927V9.66927C2.99992 10.4026 3.59992 11.0026 4.33325 11.0026H10.3333C11.0666 11.0026 11.6666 10.4026 11.6666 9.66927V1.66927C11.6666 0.935938 11.0666 0.335938 10.3333 0.335938ZM10.3333 9.66927H4.33325V1.66927H10.3333V9.66927ZM0.333252 9.0026V7.66927H1.66659V9.0026H0.333252ZM0.333252 5.33594H1.66659V6.66927H0.333252V5.33594ZM4.99992 12.3359H6.33325V13.6693H4.99992V12.3359ZM0.333252 11.3359V10.0026H1.66659V11.3359H0.333252ZM1.66659 13.6693C0.933252 13.6693 0.333252 13.0693 0.333252 12.3359H1.66659V13.6693ZM3.99992 13.6693H2.66659V12.3359H3.99992V13.6693ZM7.33325 13.6693V12.3359H8.66659C8.66659 13.0693 8.06659 13.6693 7.33325 13.6693ZM1.66659 3.0026V4.33594H0.333252C0.333252 3.6026 0.933252 3.0026 1.66659 3.0026Z" fill="white"/>
</svg>
