<svg width="36" height="36" viewBox="0 0 36 36" fill="none" xmlns="http://www.w3.org/2000/svg">
<path d="M18 36C27.9411 36 36 27.9411 36 18C36 8.05888 27.9411 0 18 0C8.05887 0 0 8.05888 0 18C0 27.9411 8.05887 36 18 36Z" fill="#E1EDFF"/>
<path d="M24 12H12C11.175 12 10.5 12.675 10.5 13.5V22.5C10.5 23.325 11.175 24 12 24H24C24.825 24 25.5 23.325 25.5 22.5V13.5C25.5 12.675 24.825 12 24 12ZM18.75 13.5H20.625V22.5H18.75V13.5ZM17.25 22.5H15.375V13.5H17.25V22.5ZM12 13.5H13.875V22.5H12V13.5ZM24 22.5H22.125V13.5H24V22.5Z" fill="#508DE8"/>
</svg>
