<svg width="36" height="36" viewBox="0 0 36 36" fill="none" xmlns="http://www.w3.org/2000/svg">
<circle cx="18" cy="18" r="18" fill="#3EBB5A"/>
<path d="M26.8184 17.8175L24.822 15.5347L25.1002 12.5157L22.1465 11.8447L20.6002 9.22656L17.8184 10.4211L15.0365 9.22656L13.4902 11.8366L10.5365 12.4993L10.8147 15.5266L8.81836 17.8175L10.8147 20.1002L10.5365 23.1275L13.4902 23.7984L15.0365 26.4084L17.8184 25.2057L20.6002 26.4002L22.1465 23.7902L25.1002 23.1193L24.822 20.1002L26.8184 17.8175ZM16.2556 21.6793L13.1465 18.562L14.3575 17.3511L16.2556 19.2575L21.042 14.4547L22.2529 15.6657L16.2556 21.6793Z" fill="white"/>
</svg>
