<svg width="16" height="22" viewBox="0 0 16 22" fill="none" xmlns="http://www.w3.org/2000/svg">
<path d="M10.6898 1.21L0.329845 10.49C-0.310155 11.07 0.0498451 12.14 0.909845 12.22L8.99985 13L4.14984 19.76C3.92984 20.07 3.95984 20.5 4.22984 20.77C4.52984 21.07 4.99985 21.08 5.30985 20.79L15.6698 11.51C16.3098 10.93 15.9498 9.86 15.0898 9.78L6.99985 9L11.8498 2.24C12.0698 1.93 12.0398 1.5 11.7698 1.23C11.4698 0.929997 10.9998 0.919997 10.6898 1.21Z" fill="#DEEBFF"/>
<path d="M10.6898 1.21L0.329845 10.49C-0.310155 11.07 0.0498451 12.14 0.909845 12.22L8.99985 13L4.14984 19.76C3.92984 20.07 3.95984 20.5 4.22984 20.77C4.52984 21.07 4.99985 21.08 5.30985 20.79L15.6698 11.51C16.3098 10.93 15.9498 9.86 15.0898 9.78L6.99985 9L11.8498 2.24C12.0698 1.93 12.0398 1.5 11.7698 1.23C11.4698 0.929997 10.9998 0.919997 10.6898 1.21Z" fill="black" fill-opacity="0.2"/>
</svg>
