<svg width="24" height="24" viewBox="0 0 24 24" fill="none" xmlns="http://www.w3.org/2000/svg">
<circle opacity="0.9" cx="12" cy="12" r="12" fill="#3EBB5A"/>
<path d="M6.42297 16.7869H7.51388C7.81388 16.7869 8.05934 16.5415 8.05934 16.2415V11.3324C8.05934 11.0324 7.81388 10.7869 7.51388 10.7869H6.42297V16.7869ZM17.2393 12.9033C17.2993 12.7669 17.3321 12.6197 17.3321 12.4669V11.8778C17.3321 11.2778 16.8412 10.7869 16.2412 10.7869H13.2412L13.743 8.25057C13.7702 8.13057 13.7539 7.99966 13.6993 7.89057C13.5739 7.64511 13.4157 7.42148 13.2193 7.22511L12.9684 6.96875L9.47206 10.4651C9.26479 10.6724 9.15025 10.9506 9.15025 11.2397V15.516C9.15025 16.2142 9.72297 16.7869 10.4266 16.7869H14.8502C15.2321 16.7869 15.5921 16.5851 15.7884 16.2578L17.2393 12.9033Z" fill="white"/>
</svg>
